:FULLY-SPECIFIED
:FORCE-ALL-JOINTS-BE-3DOF
:DEGREES
291
root 10.0155 16.7023 3.97923 7.75862 3.75953 5.07704
lfemur 6.87642 3.73545 -30.1785
ltibia -0.20987 0 0
lfoot -15.0753 0.879764 0
ltoes 2.51163 0 0
rfemur -37.6242 15.364 -0.774374
rtibia 31.5219 0 0
rfoot -25.217 -19.2753 0
rtoes -22.357 0 0
lowerback -7.71502 -3.84757 -6.65654
upperback -1.02258 -4.61505 1.65844
thorax 4.03752 -2.4203 4.83136
lowerneck -19.1358 -4.59878 -12.7757
upperneck 21.1687 -5.65653 12.2604
head 10.6985 -2.22167 5.75875
lclavicle -4.79078e-14 -3.86742e-15 0
lhumerus -14.5918 -30.5927 88.5934
lradius 35.0611 0 0
lwrist 13.6547 0 0
lhand -10.2986 -21.3008 0
lfingers 7.12502 0 0
lthumb 15.6961 8.08278 0
rclavicle -4.79078e-14 -3.86742e-15 0
rhumerus -50.1559 5.76736 -83.3314
rradius 34.9823 0 0
rwrist -19.0702 0 0
rhand -28.3558 -27.5668 0
rfingers 7.12502 0 0
rthumb -1.72956 -57.5396 0
292
root 10.0189 16.7046 4.11017 7.73206 4.05006 5.10892
lfemur 7.55235 3.6519 -30.1181
ltibia -0.4602 0 0
lfoot -15.0759 0.838317 0
ltoes 2.43215 0 0
rfemur -38.2373 15.6401 -0.895538
rtibia 30.9948 0 0
rfoot -25.8946 -19.4098 0
rtoes -22.3161 0 0
lowerback -7.74782 -3.94893 -6.70116
upperback -0.999345 -4.74565 1.67456
thorax 4.09441 -2.4875 4.86042
lowerneck -19.1098 -4.59954 -12.7759
upperneck 21.2211 -5.6634 12.2508
head 10.7134 -2.22682 5.75607
lclavicle -4.81128e-14 -3.84411e-15 0
lhumerus -14.2724 -31.0398 88.6903
lradius 35.277 0 0
lwrist 14.0063 0 0
lhand -10.3677 -21.2617 0
lfingers 7.12502 0 0
lthumb 15.6295 8.12703 0
rclavicle -4.81128e-14 -3.84411e-15 0
rhumerus -50.1583 5.75734 -83.2754
rradius 34.9306 0 0
rwrist -19.0479 0 0
rhand -28.3419 -27.5367 0
rfingers 7.12502 0 0
rthumb -1.71608 -57.5096 0
293
root 10.0219 16.7069 4.24175 7.70562 4.33425 5.13644
lfemur 8.19667 3.57261 -30.0522
ltibia -0.672506 0 0
lfoot -15.0725 0.802765 0
ltoes 2.35149 0 0
rfemur -38.8254 15.9032 -0.999995
rtibia 30.4832 0 0
rfoot -26.5479 -19.5307 0
rtoes -22.2717 0 0
lowerback -7.77886 -4.04642 -6.74172
upperback -0.976893 -4.87147 1.69074
thorax 4.14879 -2.55221 4.88784
lowerneck -19.0849 -4.60099 -12.7765
upperneck 21.2718 -5.67119 12.2424
head 10.728 -2.23223 5.75366
lclavicle -4.82765e-14 -3.81756e-15 0
lhumerus -13.974 -31.4703 88.79
lradius 35.4827 0 0
lwrist 14.3458 0 0
lhand -10.4366 -21.2234 0
lfingers 7.12502 0 0
lthumb 15.5632 8.17042 0
rclavicle -4.82765e-14 -3.81756e-15 0
rhumerus -50.156 5.75155 -83.2218
rradius 34.8828 0 0
rwrist -19.0282 0 0
rhand -28.3292 -27.5073 0
rfingers 7.12502 0 0
rthumb -1.70384 -57.4803 0
294
root 10.0244 16.7093 4.37405 7.67935 4.61175 5.15966
lfemur 8.80902 3.49761 -29.9811
ltibia -0.847407 0 0
lfoot -15.0651 0.773017 0
ltoes 2.26983 0 0
rfemur -39.3879 16.1533 -1.088
rtibia 29.9876 0 0
rfoot -27.1766 -19.6381 0
rtoes -22.224 0 0
lowerback -7.80814 -4.13996 -6.77827
upperback -0.955241 -4.99241 1.70697
thorax 4.20066 -2.61437 4.91362
lowerneck -19.0611 -4.60312 -12.7773
upperneck 21.3206 -5.67983 12.2351
head 10.7423 -2.23789 5.75152
lclavicle -4.83995e-14 -3.7879e-15 0
lhumerus -13.6966 -31.8839 88.892
lradius 35.678 0 0
lwrist 14.6729 0 0
lhand -10.505 -21.186 0
lfingers 7.12502 0 0
lthumb 15.4973 8.21289 0
rclavicle -4.83995e-14 -3.7879e-15 0
rhumerus -50.1493 5.74987 -83.1708
rradius 34.8389 0 0
rwrist -19.0108 0 0
rhand -28.3178 -27.4786 0
rfingers 7.12502 0 0
rthumb -1.6928 -57.4517 0
295
root 10.0265 16.7119 4.50712 7.6533 4.8822 5.17864
lfemur 9.38909 3.42693 -29.905
ltibia -0.985526 0 0
lfoot -15.0539 0.748981 0
ltoes 2.18735 0 0
rfemur -39.9246 16.3902 -1.1598
rtibia 29.5084 0 0
rfoot -27.7799 -19.7323 0
rtoes -22.173 0 0
lowerback -7.83565 -4.22949 -6.81084
upperback -0.93441 -5.10837 1.72321
thorax 4.24996 -2.67394 4.93775
lowerneck -19.0384 -4.60591 -12.7783
upperneck 21.3675 -5.68931 12.2289
head 10.7563 -2.24379 5.74964
lclavicle -4.84826e-14 -3.75526e-15 0
lhumerus -13.4402 -32.2801 88.9963
lradius 35.8628 0 0
lwrist 14.9873 0 0
lhand -10.5728 -21.1494 0
lfingers 7.12502 0 0
lthumb 15.432 8.25439 0
rclavicle -4.84826e-14 -3.75526e-15 0
rhumerus -50.1382 5.75222 -83.1222
rradius 34.7989 0 0
rwrist -18.9959 0 0
rhand -28.3076 -27.4506 0
rfingers 7.12502 0 0
rthumb -1.68298 -57.4238 0
296
root 10.0281 16.7145 4.64102 7.62751 5.14526 5.19345
lfemur 9.93651 3.36061 -29.8243
ltibia -1.08748 0 0
lfoot -15.0391 0.730566 0
ltoes 2.10424 0 0
rfemur -40.4349 16.6137 -1.21565
rtibia 29.0462 0 0
rfoot -28.3574 -19.8132 0
rtoes -22.1191 0 0
lowerback -7.86138 -4.31491 -6.83946
upperback -0.914422 -5.21923 1.73942
thorax 4.29667 -2.73086 4.96022
lowerneck -19.0168 -4.60934 -12.7797
upperneck 21.4125 -5.69958 12.2238
head 10.7701 -2.2499 5.74803
lclavicle -4.85267e-14 -3.71978e-15 0
lhumerus -13.2048 -32.6588 89.1024
lradius 36.037 0 0
lwrist 15.2886 0 0
lhand -10.64 -21.1139 0
lfingers 7.12502 0 0
lthumb 15.3673 8.29486 0
rclavicle -4.85267e-14 -3.71978e-15 0
rhumerus -50.1229 5.7585 -83.0762
rradius 34.7627 0 0
rwrist -18.9834 0 0
rhand -28.2987 -27.4234 0
rfingers 7.12502 0 0
rthumb -1.67435 -57.3967 0
297
root 10.0293 16.7173 4.77581 7.60203 5.40056 5.20416
lfemur 10.4509 3.29867 -29.7392
ltibia -1.1539 0 0
lfoot -15.0207 0.71768 0
ltoes 2.02066 0 0
rfemur -40.9185 16.8238 -1.2558
rtibia 28.6016 0 0
rfoot -28.9085 -19.8811 0
rtoes -22.0623 0 0
lowerback -7.88532 -4.39616 -6.86417
upperback -0.895295 -5.3249 1.75558
thorax 4.34075 -2.78507 4.98103
lowerneck -18.9963 -4.61338 -12.7812
upperneck 21.4556 -5.71059 12.2199
head 10.7835 -2.25621 5.74667
lclavicle -4.85326e-14 -3.68159e-15 0
lhumerus -12.9904 -33.0195 89.2102
lradius 36.2006 0 0
lwrist 15.5766 0 0
lhand -10.7063 -21.0794 0
lfingers 7.12502 0 0
lthumb 15.3033 8.33423 0
rclavicle -4.85326e-14 -3.68159e-15 0
rhumerus -50.1035 5.76858 -83.0328
rradius 34.7303 0 0
rwrist -18.9732 0 0
rhand -28.291 -27.3971 0
rfingers 7.12502 0 0
rthumb -1.6669 -57.3704 0
298
root 10.0301 16.7202 4.91155 7.57689 5.64777 5.21084
lfemur 10.9321 3.24116 -29.65
ltibia -1.1854 0 0
lfoot -14.9988 0.710232 0
ltoes 1.9368 0 0
rfemur -41.3749 17.0203 -1.28051
rtibia 28.175 0 0
rfoot -29.4327 -19.9362 0
rtoes -22.0028 0 0
lowerback -7.90746 -4.47317 -6.88499
upperback -0.877051 -5.42527 1.77166
thorax 4.38217 -2.83653 5.00016
lowerneck -18.9769 -4.61801 -12.783
upperneck 21.4967 -5.72232 12.2169
head 10.7966 -2.26271 5.74557
lclavicle -4.85011e-14 -3.64083e-15 0
lhumerus -12.797 -33.3618 89.3194
lradius 36.3534 0 0
lwrist 15.851 0 0
lhand -10.7718 -21.046 0
lfingers 7.12502 0 0
lthumb 15.2403 8.37246 0
rclavicle -4.85011e-14 -3.64083e-15 0
rhumerus -50.0801 5.78239 -82.992
rradius 34.7018 0 0
rwrist -18.9654 0 0
rhand -28.2845 -27.3715 0
rfingers 7.12502 0 0
rthumb -1.66064 -57.345 0
